<svg version="1.1" xmlns="http://www.w3.org/2000/svg" xmlns:xlink="http://www.w3.org/1999/xlink" width="36" height="36" viewBox="0,0,256,256"><g fill="#f8d24e" fill-rule="nonzero" stroke="none" stroke-width="1" stroke-linecap="butt" stroke-linejoin="miter" stroke-miterlimit="10" stroke-dasharray="" stroke-dashoffset="0" font-family="none" font-weight="none" font-size="none" text-anchor="none" style="mix-blend-mode: normal"><g transform="translate(3.18151,0) scale(7.11111,7.11111)"><path d="M18.1219,0.1205c0.0904,0.24101 0.2711,1.40837 0.2711,1.76988c0,0.89623 -0.3314,1.73221 -0.9414,2.38744c-0.5046,0.54226 -1.0092,0.84352 -2.2218,1.33306c-1.3481,0.54979 -1.9054,0.88117 -2.538,1.50628c-0.6402,0.64016 -1.0168,1.34058 -1.1523,2.1615c-0.1507,0.89624 0,1.52884 0.4594,1.89034l0.2335,0.1808l-0.3691,0.2335c-0.7456,0.4895 -2.10124,1.6418 -2.33471,1.9958c-0.45188,0.6778 -0.40669,1.3104 0.10544,1.5665l0.24101,0.1205l-0.27113,0.2561c-0.4067,0.3841 -0.48954,0.6477 -0.42929,1.3406c0.03765,0.4594 0.02259,0.7079 -0.08285,1.0845c-0.12803,0.4895 -0.12803,0.4971 0.03766,0.8435c0.16569,0.3389 0.63263,0.7682 1.05437,0.9489c0.2034,0.0904 0.2109,0.1206 0.2561,0.8134c0.0226,0.3992 0.0602,1.672 0.0904,2.8318c0.0226,1.1599 0.0753,2.2218 0.1205,2.3498c0.0376,0.1356 0.1807,0.3163 0.3088,0.4067c0.4368,0.3013 0.738,0.6251 0.9338,1.0017c0.2185,0.4293 0.4595,1.4837 1.19,5.1289l0.5121,2.5606l0.3164,0.3013c0.6025,0.595 1.7548,0.8661 3.6527,0.8661c1.9054,0 3.0427,-0.2636 3.6452,-0.8586l0.3238,-0.3088l0.467,-2.3723c1.0318,-5.1892 1.1221,-5.4754 1.928,-6.1155c0.2485,-0.2034 0.4895,-0.4519 0.5347,-0.5649c0.0527,-0.128 0.1055,-1.1146 0.1431,-2.6058c0.0301,-1.3256 0.0753,-2.636 0.1055,-2.9147l0.0451,-0.5046l0.4896,-0.369c0.6176,-0.4745 0.8586,-0.9038 0.8586,-1.5666c-0.0076,-0.7832 -0.5197,-1.6418 -1.4536,-2.41l-0.4443,-0.3615l0.2184,-0.3088c0.9113,-1.2577 0.3389,-2.9975 -1.3557,-4.1573l-0.5121,-0.354l0.1883,-0.1958c0.8359,-0.89624 0.9715,-3.56987 0.2711,-5.43013c-0.4218,-1.10711 -1.3858,-2.31213 -2.5682,-3.20083c-0.5799,-0.43682 -2.1766,-1.40084 -2.3197,-1.40084c-0.0301,0 -0.0301,0.05272 -0.0075,0.1205zM20.2909,2.74895c0.3992,0.39164 0.8812,0.92636 1.0695,1.19749c1.1222,1.56653 1.4084,3.53222 0.7305,4.97825c-0.2711,0.58744 -1.0845,1.46111 -1.8376,1.98071c-1.1523,0.7984 -3.7431,2.139 -5.5506,2.877c-2.9072,1.1825 -4.5942,1.4084 -4.79001,0.6327c-0.07531,-0.2938 0.14311,-0.5272 1.06941,-1.1448c0.836,-0.5724 4.5867,-3.359 4.6544,-3.47197c0.0226,-0.03013 -0.3615,0.14309 -0.8435,0.38407c-1.6343,0.8285 -2.41,0.6703 -2.3724,-0.48198c0.0226,-0.83598 0.6251,-1.78494 1.4611,-2.3272c0.2109,-0.13556 0.8661,-0.43682 1.4686,-0.67782c1.9808,-0.79833 2.5833,-1.20502 3.2536,-2.2067c0.3992,-0.59498 0.836,-1.69456 0.8661,-2.1615c0.0075,-0.16569 0.0377,-0.29373 0.0603,-0.29373c0.0226,0 0.3615,0.32385 0.7606,0.71548zM22.347,11.3046c0.5498,0.3088 1.1222,0.836 1.3707,1.2502c0.4368,0.7456 0.2109,1.4912 -0.7305,2.4402c-1.0243,1.0393 -2.7716,2.0335 -4.6921,2.6661c-1.7699,0.5799 -3.4644,0.851 -5.8895,0.9339l-1.5063,0.0527l0.9791,0.0603c1.2653,0.0828 3.713,0.0075 4.6619,-0.1431c2.523,-0.3992 4.6695,-1.1975 6.2059,-2.2971c0.3464,-0.2486 0.7079,-0.4519 0.8058,-0.4519c0.2486,0 1.3331,1.0393 1.5515,1.4761c0.1205,0.2486 0.1506,0.4293 0.128,0.6703c-0.113,1.0017 -1.333,1.5364 -4.2778,1.8904c-3.6,0.4293 -8.3071,0.0076 -10.318,-0.9188c-0.94895,-0.4368 -1.10711,-0.6854 -0.8661,-1.3481c0.07531,-0.2109 0.09037,-0.4594 0.06025,-0.8134c-0.03766,-0.467 -0.03013,-0.5272 0.13556,-0.7004c0.37659,-0.4067 1.00919,-0.6402 3.32889,-1.2276c0.8134,-0.2109 1.9205,-0.5423 2.4477,-0.7381c1.2803,-0.467 3.6828,-1.6795 4.7975,-2.4251c1.0468,-0.6929 1.1975,-0.723 1.8075,-0.3766zM12.3453,20.523c1.5816,0.4594 2.9825,0.595 5.5883,0.5423c1.9582,-0.0377 3.1632,-0.1582 4.9029,-0.467c0.354,-0.0602 0.6628,-0.1129 0.7005,-0.1129c0.0828,0 0.0602,2.892 -0.0302,3.6527c-0.0979,0.8058 -0.3163,1.4309 -0.5498,1.5816c-0.241,0.1581 -1.446,0.3238 -3.0577,0.4142c-3.3063,0.1807 -6.7029,0 -7.7573,-0.4218c-0.5724,-0.2334 -0.6327,-0.5347 -0.6402,-3.3288c0,-1.8603 0.0151,-2.1164 0.113,-2.0787c0.0602,0.0226 0.3916,0.1205 0.7305,0.2184zM14.1303,26.9247c0.5422,0.0678 1.1297,0.1356 1.3104,0.1581l0.3239,0.0377l-0.2862,0.3163c-0.3691,0.3992 -0.9339,1.1975 -1.1373,1.6042c-0.2334,0.4669 -0.3087,0.4971 -0.6552,0.3088l-0.2937,-0.1657l-0.1657,-1.0243c-0.0904,-0.5573 -0.1883,-1.092 -0.2109,-1.1824c-0.0678,-0.1958 -0.1355,-0.1958 1.1147,-0.0527zM22.1587,26.8418c0,0.0151 -0.0376,0.2109 -0.0753,0.4293c-0.0452,0.226 -0.2335,1.4536 -0.4218,2.7339c-0.3841,2.6737 -0.6401,3.9314 -0.8736,4.3532c-0.3238,0.5648 -1.0996,0.8962 -2.3573,1.0016c-0.4896,0.0377 -1.9657,-0.0602 -2.0486,-0.1355c-0.0602,-0.0678 1.2352,-1.672 1.4385,-1.7774c0.1883,-0.1055 0.241,-0.0904 0.8812,0.241c0.7456,0.3916 1.1222,0.4518 1.1222,0.2033c0,-0.2485 -0.1958,-0.4895 -0.6778,-0.8209c-0.4444,-0.3163 -0.6025,-0.4971 -0.6025,-0.708c0,-0.0602 0.2184,-0.3991 0.482,-0.7531c0.2636,-0.354 0.6477,-0.9188 0.8435,-1.2577l0.369,-0.6101l0.3389,0.0452c0.6854,0.0979 0.8661,0.0904 0.8435,-0.0602c-0.015,-0.0754 -0.1431,-0.2938 -0.2862,-0.4745c-0.143,-0.1883 -0.256,-0.3766 -0.256,-0.4142c0,-0.1431 0.7004,-1.4611 0.9263,-1.7398c0.1959,-0.241 0.354,-0.3615 0.354,-0.2561zM17.4516,27.4444c0.3766,0.2485 1.7925,1.4761 1.8828,1.6267c0.0377,0.0678 -1.4159,2.3423 -1.702,2.6661c-0.0302,0.0377 -0.1883,-0.0376 -0.3465,-0.1581c-0.1581,-0.1281 -0.7456,-0.5347 -1.3104,-0.9038l-1.0168,-0.6703l0.6101,-1.0318c1.0845,-1.815 1.0619,-1.7849 1.2954,-1.7849c0.1205,0 0.3841,0.113 0.5874,0.2561zM20.306,27.7155c-0.2636,0.3238 -0.482,0.5272 -0.5724,0.5272c-0.1958,0 -0.5121,-0.1732 -1.0468,-0.5649l-0.4444,-0.3238l0.8887,-0.0527c0.482,-0.0226 0.949,-0.0528 1.0318,-0.0678c0.6025,-0.0979 0.6025,-0.0904 0.1431,0.482zM14.6123,31.3381c0.6929,0.2711 1.8678,0.9113 2.2067,1.1975c0.241,0.1958 0.241,0.2108 0.1431,0.4518c-0.0603,0.1356 -0.2636,0.4971 -0.467,0.8059c-0.1958,0.3013 -0.4217,0.6778 -0.5046,0.836c-0.241,0.4669 -0.3163,0.5046 -0.8134,0.369c-0.5347,-0.1581 -0.8209,-0.4293 -0.9715,-0.9188c-0.2034,-0.6854 -0.5272,-2.6209 -0.4896,-2.9222c0.0151,-0.1129 0.3314,-0.0452 0.8963,0.1808z"></path></g></g></svg>